# xmcd
# 
# Track frame offsets:
#     183
#     24258
#     39208
#     56953
#     89773
#     108003
#     134228
#     154725
#     180605
# 
# Disc length: 2541
# 
# Revision: 8
# Processed by: cddbd v1.5.2PL0 Copyright (c) Steve Scherf et al.
# Submitted via: fre:ac v1.0.27
# 
DISCID=7409eb09
DTITLE=Zucchero - Oro Incenso and Birra
DYEAR=1989
DGENRE=Pop
TTITLE0=Overdose (D'amore)
TTITLE1=Nice (Nietzsche) Che Dice
TTITLE2=Il Mare Impetuoso Al Tramonto Salì Sulla Luna E Dietro Una Tendina Di Stelle...
TTITLE3=Madre Dolcissima
TTITLE4=Diavolo In Me
TTITLE5=Iruben Me
TTITLE6=A Wonderful World
TTITLE7=Diamante
TTITLE8=Libera L'amore
EXTD=YEAR: 1989
EXTT0=
EXTT1=
EXTT2=
EXTT3=
EXTT4=
EXTT5=
EXTT6=
EXTT7=
EXTT8=
PLAYORDER=
